# xmcd
#
# Track frame offsets: 
#        150
#        22082
#        47964
#        70696
#        95528
#        123585
#        145964
#        166312
#        192869
#        215001
#        235183
#        252665
#        266472
#
# Disc length: 3801 seconds
#
# Revision: 5
# Processed by: cddbd v1.5.2PL0 Copyright (c) Steve Scherf et al.
# Submitted via: ExactAudioCopy v1.0b3
#
DISCID=c50ed70d
DTITLE=Frédéric Chopin - Nocturnes op. 37, 48, 55, 62, 72, 2 posthumes
DYEAR=1963
DGENRE=Romantique
TTITLE0=Nocturne en la bémol majeur op. 32 n° 2
TTITLE1=Nocturne en sol mineur op. 37 n° 1
TTITLE2=Nocturne en sol majeur op. 37 n° 2
TTITLE3=Nocturne en ut mineur op. 48 n° 1
TTITLE4=Nocturne en fa dièse mineur op. 48 n° 2
TTITLE5=Nocturne en fa mineur op. 55 n° 1
TTITLE6=Nocturne en mi bémol majeur op. 55 n° 2
TTITLE7=Nocturne en si majeur op. 62 n° 1
TTITLE8=Nocturne en mi majeur op. 62 n° 2
TTITLE9=Nocturne en mi mineur op. 72
TTITLE10=Nocturne en ut dièse mineur op. posthume
TTITLE11=Nocturne en ut mineur op. posthume
TTITLE12=Prélude en ut dièse mineur op. 45
EXTD=YEAR: 1963
EXTT0=
EXTT1=
EXTT2=
EXTT3=
EXTT4=
EXTT5=
EXTT6=
EXTT7=
EXTT8=
EXTT9=
EXTT10=
EXTT11=
EXTT12=
PLAYORDER=
